<svg xmlns="http://www.w3.org/2000/svg" xmlns:xlink="http://www.w3.org/1999/xlink" width="1920" zoomAndPan="magnify" viewBox="0 0 1440 1439.999935" height="1920" preserveAspectRatio="xMidYMid meet" version="1.0"><defs><g/><clipPath id="d406d03c29"><path d="M 720 0 C 322.355469 0 0 322.355469 0 720 C 0 1117.644531 322.355469 1440 720 1440 C 1117.644531 1440 1440 1117.644531 1440 720 C 1440 322.355469 1117.644531 0 720 0 " clip-rule="nonzero"/></clipPath></defs><rect x="-144" width="1728" fill="#ffffff" y="-143.999994" height="1727.999922" fill-opacity="1"/><rect x="-144" width="1728" fill="#ffffff" y="-143.999994" height="1727.999922" fill-opacity="1"/><rect x="-144" width="1728" fill="#ffffff" y="-143.999994" height="1727.999922" fill-opacity="1"/><g clip-path="url(#d406d03c29)"><rect x="-144" width="1728" fill="#283046" y="-143.999994" height="1727.999922" fill-opacity="1"/></g><path fill="#ffffff" d="M 373.140625 1055.632812 C 372.058594 1055.757812 370.96875 1055.839844 369.84375 1055.847656 C 371.035156 1055.882812 372.117188 1055.800781 373.140625 1055.632812 " fill-opacity="1" fill-rule="nonzero"/><path fill="#ffffff" d="M 1256.652344 1181.738281 C 1249.554688 1183.910156 1241.734375 1185.835938 1234.445312 1187.339844 C 1235.269531 1185.351562 1236.078125 1183.378906 1236.851562 1181.449219 C 1242.292969 1176.082031 1248.765625 1171.09375 1254.8125 1167.199219 C 1245.71875 1160.757812 1255.730469 1148.367188 1254.996094 1139.160156 C 1252.691406 1141.449219 1250.460938 1143.789062 1248.230469 1146.125 C 1252.292969 1129.179688 1253.441406 1114.765625 1252.582031 1102.214844 C 1254.78125 1078.152344 1245.105469 1049.234375 1243.058594 1026.992188 C 1239.1875 1034.210938 1239.089844 1043.589844 1233.023438 1048.972656 C 1232.664062 1048.46875 1232.308594 1047.96875 1231.941406 1047.46875 C 1228.273438 1034.699219 1219.984375 1019.335938 1224.230469 1006.695312 C 1221.707031 1012.496094 1219.695312 1020.992188 1216.082031 1027.5 C 1214.027344 1024.996094 1212.023438 1022.515625 1210.117188 1020.027344 C 1204.242188 1004.621094 1206.558594 981.859375 1214.675781 970.050781 C 1210.25 975.226562 1206.773438 982.160156 1202.503906 987.453125 C 1199.617188 973.902344 1215.617188 950.664062 1220.792969 937.289062 C 1211.015625 943.367188 1207.121094 952.855469 1198.453125 959.703125 C 1209.59375 939.546875 1218.578125 917.875 1236.203125 901.535156 C 1223.613281 907.402344 1212.5625 915.078125 1203.210938 924.15625 C 1208.1875 898.640625 1214.734375 878.566406 1214.734375 878.566406 L 1206.625 881.476562 C 1208.269531 878.398438 1209.917969 875.3125 1211.558594 872.222656 C 1186.953125 890.582031 1144.914062 884.464844 1130.46875 918.097656 C 1128.8125 912.324219 1128.066406 905.199219 1130.234375 900.347656 C 1125.785156 909.335938 1120.792969 917.457031 1118.179688 927.421875 C 1117.074219 922.21875 1115.085938 913.789062 1113.570312 910.707031 C 1114.835938 927.828125 1106.101562 944.214844 1105.933594 961.253906 C 1099.785156 955.078125 1099.460938 945.414062 1095.339844 938.878906 C 1100.285156 952.222656 1092.8125 959.570312 1089.308594 971.613281 C 1086.628906 980.851562 1086.640625 990.707031 1088.078125 1000.320312 L 1087.371094 997.238281 C 1088.402344 1003.78125 1089.203125 1009.433594 1091.589844 1015.839844 C 1091.722656 1016.316406 1091.847656 1016.808594 1091.988281 1017.28125 L 1091.78125 1016.375 C 1092.246094 1017.582031 1092.746094 1018.8125 1093.34375 1020.085938 C 1086.082031 1017.90625 1080.539062 1011.046875 1073.734375 1006.726562 C 1076.046875 1019.011719 1085.125 1032.820312 1090.015625 1044.988281 C 1095.351562 1058.253906 1099.625 1072.136719 1108.394531 1083.695312 C 1101.03125 1080.59375 1096.882812 1071.636719 1092.339844 1065.179688 C 1090.691406 1088.550781 1113.246094 1111.746094 1124.152344 1130.796875 C 1119.636719 1128.023438 1114.894531 1125.34375 1110.328125 1122.664062 C 1113.046875 1132.601562 1121.535156 1137.519531 1125.695312 1146.210938 C 1120.601562 1142.878906 1114.917969 1139.535156 1109.09375 1137.738281 C 1113.988281 1148.097656 1123.894531 1160.058594 1124.039062 1171.246094 C 1119.171875 1165.742188 1115.46875 1158.761719 1112.332031 1151.871094 C 1114.511719 1168.964844 1117.316406 1189.386719 1120.558594 1207.074219 C 1117.183594 1197.476562 1111.332031 1188.089844 1105.785156 1179.660156 C 1107.722656 1197.1875 1113.835938 1214.996094 1116.449219 1232.582031 C 1110.992188 1227.507812 1106.957031 1220.773438 1105.007812 1213.484375 C 1108.894531 1227.390625 1114.835938 1251.519531 1105.476562 1263.292969 C 1101.074219 1258.226562 1096.441406 1248.996094 1095.074219 1245.160156 C 1098.019531 1269.105469 1093.152344 1290.277344 1082.960938 1309.027344 C 1072.410156 1317.824219 1064.257812 1319.871094 1064.257812 1319.871094 C 1067.4375 1317.242188 1070.613281 1308.9375 1073.042969 1297.203125 C 1074.132812 1297.84375 1075.230469 1298.492188 1076.320312 1299.125 C 1080.414062 1286.90625 1082.46875 1269.671875 1077.269531 1257.410156 C 1077.277344 1257.203125 1077.277344 1257.003906 1077.285156 1256.792969 C 1079.550781 1259.015625 1083.335938 1260.9375 1085.597656 1263.378906 C 1085.691406 1249.851562 1082.820312 1236.253906 1078.742188 1223.3125 C 1082.886719 1224.941406 1087.304688 1226.773438 1090.523438 1230.96875 C 1092.421875 1219.324219 1083.742188 1212.609375 1081.40625 1202.386719 C 1087.238281 1204.328125 1091.664062 1208.855469 1095.183594 1213.972656 C 1086.886719 1189.820312 1071.761719 1175.789062 1055.914062 1160.507812 C 1051.253906 1153.46875 1045.695312 1147.367188 1039.121094 1142.5625 C 1046.894531 1144.429688 1054.890625 1146.292969 1062.550781 1148.058594 C 1051.335938 1133.402344 1034.355469 1128.414062 1021.269531 1117.761719 C 1027.898438 1115.546875 1038.164062 1116.648438 1042.910156 1114.382812 C 1016.816406 1114.765625 980.117188 1091.8125 960.03125 1075.773438 C 978.828125 1076.113281 997.613281 1074.785156 1016.027344 1075.765625 C 965.980469 1072.371094 942.25 1029.457031 916.542969 992.894531 C 926.859375 993.652344 937.542969 996.492188 948.234375 997.324219 C 934.65625 991.523438 914.578125 984.40625 908.113281 971.613281 C 918.9375 973.9375 935.652344 973.59375 945.082031 972.496094 C 922.074219 969.964844 893.554688 964.839844 882.304688 942.335938 C 890.933594 947.828125 904.726562 949.898438 914.304688 946.3125 C 889.542969 948.609375 877.996094 922.5 864.367188 907.144531 C 852.761719 894.0625 836.71875 883.277344 819.3125 874.421875 C 788.054688 852.546875 759.125 846.007812 750.457031 832.847656 C 736.59375 811.785156 721.703125 788.664062 721.703125 788.664062 C 726.835938 789.6875 729.398438 783.011719 729.398438 783.011719 C 715.019531 785.582031 706.800781 770.4375 706.800781 770.4375 C 715.019531 771.21875 713.480469 764.003906 713.480469 764.003906 C 700.644531 765.027344 694.480469 756.296875 694.480469 756.296875 C 703.722656 756.8125 699.613281 750.644531 699.613281 750.644531 C 681.640625 749.105469 679.585938 733.183594 679.585938 733.183594 C 691.398438 734.207031 688.3125 726.5 688.3125 726.5 C 673.421875 726.5 673.9375 712.292969 673.9375 712.292969 C 682.148438 719.675781 690.882812 712.117188 690.882812 712.117188 C 686.257812 713.65625 675.476562 704.917969 675.476562 704.917969 C 666.230469 696.703125 664.691406 700.300781 656.988281 696.703125 C 649.285156 693.109375 656.988281 689.511719 656.988281 689.511719 C 643.117188 687.457031 640.039062 669.988281 640.039062 669.988281 C 649.800781 671.527344 650.316406 663.3125 650.316406 663.3125 C 640.039062 665.875 645.171875 658.6875 645.171875 658.6875 C 655.957031 657.652344 652.878906 652.519531 652.878906 652.519531 C 644.65625 653.550781 639.007812 651.496094 630.28125 642.988281 C 621.550781 634.492188 629.25 627.351562 629.25 627.351562 C 635.929688 638.136719 639.007812 646.867188 664.175781 641.214844 C 689.34375 635.566406 680.609375 621.699219 680.609375 621.699219 C 658.527344 605.769531 652.363281 581.109375 637.46875 563.132812 C 622.574219 545.144531 626.171875 524.082031 626.171875 524.082031 C 629.765625 525.628906 637.46875 524.082031 637.46875 524.082031 L 630.796875 512.777344 C 624.117188 497.363281 629.765625 486.0625 622.003906 463.457031 C 614.238281 440.851562 569.160156 405.921875 563.003906 397.699219 C 556.839844 389.484375 549.648438 384.339844 545.539062 349.410156 C 541.429688 314.472656 537.320312 310.367188 523.964844 298.035156 C 510.621094 285.707031 492.125 311.390625 492.125 311.390625 C 474.152344 311.390625 468.503906 327.828125 469.019531 347.355469 C 469.527344 366.878906 468.503906 383.832031 457.207031 380.746094 C 445.90625 377.667969 447.445312 355.0625 447.445312 355.0625 L 433.070312 357.117188 C 391.976562 359.6875 404.820312 406.4375 404.820312 406.4375 C 403.789062 394.621094 410.980469 396.675781 410.980469 396.675781 C 410.980469 396.675781 425.363281 450.109375 423.308594 478.871094 C 422.917969 484.316406 422.378906 489.53125 421.652344 494.519531 C 415.929688 498.472656 409.457031 501.042969 403.742188 499.679688 C 407.519531 500.378906 411.078125 502.050781 415.140625 502.734375 C 410.15625 508.269531 403.167969 511.140625 396.042969 512.0625 C 400.796875 515.582031 406.136719 516.964844 411.984375 516.308594 C 400.628906 526.902344 395.113281 545.453125 376.09375 545.578125 C 380.933594 547.742188 383.480469 549.125 389.296875 549.089844 C 384.746094 553.101562 377.597656 555.949219 371.382812 556.375 C 375.644531 557.265625 378.164062 559.121094 382.699219 559.460938 C 371.390625 565.871094 360.765625 570.953125 351.679688 580.699219 C 344.574219 588.316406 340.207031 598.703125 330.640625 603.539062 C 341.015625 602.433594 355.027344 601.667969 363.296875 597.046875 C 362.257812 606.46875 351.558594 615.65625 346.046875 619.667969 C 349.777344 618.246094 354.535156 617.796875 358.445312 616.789062 C 356.074219 623.636719 352.265625 631.085938 345.308594 633.46875 C 350.433594 636.121094 356.097656 635.441406 361.183594 632.550781 C 356.316406 638.945312 351.191406 645.09375 345.273438 650.539062 C 350.609375 650.03125 354.3125 650.105469 359.128906 648.03125 C 355.832031 653.75 354.253906 662.515625 348.429688 667.574219 C 351.507812 664.859375 356.03125 663.386719 359.570312 661.414062 C 359.792969 662.539062 360.035156 663.6875 360.277344 664.851562 C 359.152344 669.78125 358.195312 674.082031 357.4375 677.511719 C 350.285156 683.355469 344.167969 696.171875 341.871094 702.703125 C 345.957031 699.757812 348.84375 699.765625 353.511719 698.128906 C 342.304688 705.484375 330.03125 726.042969 328.050781 739.582031 C 332.363281 735.355469 337.9375 731.535156 344.183594 730.496094 C 330.199219 748.140625 321.652344 772.90625 323.507812 795.222656 C 328.261719 785.042969 331.9375 777.234375 341.648438 770.683594 L 340.109375 772.226562 C 343.328125 779.03125 338.054688 785.242188 332.519531 788.902344 C 335.398438 787.582031 339.011719 787.746094 341.796875 786.707031 C 337.402344 799.890625 331.648438 813.996094 318.308594 819.996094 C 326.195312 820.597656 334.75 820.523438 341.066406 815.269531 C 335.324219 819.480469 333.617188 828.355469 327.902344 833.554688 C 331.605469 832.523438 336.15625 832.632812 339.875 831.027344 C 336.6875 841.546875 329.882812 851.367188 320.621094 857.410156 C 327.46875 859.839844 334.949219 862.535156 342.644531 861.503906 C 325.507812 882.617188 315.289062 911.097656 330.558594 936.632812 C 330.929688 931.214844 332.636719 925.464844 335.558594 920.644531 C 333.933594 935.734375 339.765625 954.96875 347.589844 967.460938 C 345.351562 961.710938 346.257812 955.335938 348.144531 949.582031 C 353.636719 960.726562 356.015625 977.574219 360.183594 990.574219 C 362.230469 984.722656 364.285156 978.722656 364.761719 972.363281 C 368.214844 982.109375 373.253906 996.226562 369.3125 1007.492188 C 371.589844 1004.3125 374.355469 1002.140625 376.351562 998.648438 C 375.59375 1008.925781 373.171875 1018.273438 363.71875 1024.371094 C 371.65625 1020.84375 381.660156 1015.410156 384.863281 1006.960938 C 384.328125 1019.804688 391.078125 1052.113281 373.671875 1055.558594 C 381.515625 1054.492188 388.398438 1050.53125 395.261719 1046.71875 C 396.101562 1057.628906 389.847656 1066.027344 382.25 1072.570312 C 386.292969 1072.046875 390.070312 1071.203125 393.671875 1070.171875 C 386.308594 1113.601562 385.019531 1203.738281 386.328125 1218.152344 C 387.875 1235.105469 330.863281 1373.820312 330.863281 1373.820312 C 299.53125 1358.40625 280.527344 1382.035156 280.527344 1382.035156 C 251.773438 1376.902344 245.609375 1400.539062 245.609375 1400.539062 C 233.277344 1411.324219 245.609375 1439.578125 245.609375 1439.578125 L 492.125 1439.578125 L 492.125 1363.542969 C 497.773438 1361.488281 503.421875 1346.074219 505.480469 1327.070312 C 507.535156 1308.0625 511.644531 1285.457031 538.351562 1234.082031 C 538.875 1233.066406 539.382812 1232.066406 539.890625 1231.058594 C 546.78125 1235.960938 553.195312 1242.105469 555.65625 1254.007812 C 562.78125 1242.28125 562.847656 1229.894531 563.820312 1216.253906 C 570.527344 1221.457031 575.875 1228.0625 581.847656 1234.058594 C 571.03125 1222.3125 577.972656 1203.480469 568.710938 1191.292969 C 575.160156 1194.691406 578.722656 1201.332031 584.886719 1205.183594 C 582.847656 1197.386719 578.386719 1188.839844 577.699219 1180.808594 C 583.902344 1183.769531 590.101562 1186.582031 596.875 1186.890625 C 582.214844 1175.421875 579.519531 1156.863281 575.335938 1139.101562 C 583.488281 1138.167969 603.53125 1136.320312 612.816406 1139.550781 C 624.632812 1143.664062 624.632812 1154.964844 626.171875 1163.179688 C 626.621094 1165.570312 628.101562 1170.945312 629.707031 1178.019531 C 623.375 1192.242188 615.6875 1205.167969 596.410156 1208.304688 C 600.753906 1209.722656 604.570312 1211.511719 609.589844 1211.710938 C 605.792969 1224.300781 609.839844 1240.765625 616.742188 1251.769531 C 612.917969 1244.035156 614.007812 1235.355469 616.667969 1227.433594 C 619.730469 1238.59375 621.585938 1252.609375 627.035156 1263.828125 C 628.925781 1277.042969 637.984375 1283.910156 637.984375 1283.910156 C 636.953125 1267.472656 644.148438 1272.101562 644.148438 1272.101562 C 647.746094 1311.660156 677.015625 1306.523438 677.015625 1306.523438 C 669.824219 1302.917969 654.933594 1278.773438 675.992188 1289.5625 C 697.050781 1300.355469 725.804688 1371.25 738.648438 1389.742188 C 751.488281 1408.246094 727.351562 1405.671875 727.351562 1405.671875 C 688.3125 1405.15625 650.316406 1382.550781 628.742188 1375.359375 C 607.167969 1368.171875 580.976562 1387.179688 580.976562 1387.179688 C 548.617188 1391.796875 551.707031 1442.144531 551.707031 1442.144531 C 551.707031 1442.144531 975.921875 1443.691406 996.980469 1442.144531 C 1018.03125 1440.601562 1015.46875 1432.898438 1015.46875 1432.898438 L 1033.957031 1426.222656 C 1037.265625 1425.214844 1040.578125 1424.050781 1043.875 1422.777344 C 1066.289062 1422.617188 1089.675781 1420.539062 1107.273438 1407.828125 C 1095.632812 1412.714844 1081.398438 1413.171875 1068.984375 1410.589844 C 1070.023438 1409.976562 1071.054688 1409.335938 1072.09375 1408.695312 C 1088.867188 1402.425781 1110.042969 1399.847656 1119.488281 1382.785156 C 1113.644531 1385.398438 1107.3125 1387.097656 1100.824219 1387.421875 C 1103.929688 1384.734375 1107.03125 1381.910156 1110.125 1378.972656 C 1120.101562 1374.820312 1130.777344 1371.382812 1139.980469 1366.289062 C 1133.214844 1368.710938 1125.769531 1372.746094 1118.886719 1370.308594 C 1120.253906 1368.902344 1121.617188 1367.503906 1122.980469 1366.046875 C 1136.460938 1362.070312 1154.355469 1360.371094 1162.703125 1350.417969 C 1152.507812 1353.472656 1144.980469 1355.621094 1135.328125 1352.183594 C 1135.644531 1351.816406 1135.953125 1351.425781 1136.269531 1351.050781 C 1159.058594 1343.519531 1176.261719 1335.996094 1191.480469 1316.285156 C 1190.789062 1315.738281 1190.367188 1314.253906 1190.324219 1313.390625 C 1181.253906 1317.460938 1171.488281 1322.195312 1161.488281 1322.136719 C 1181.929688 1307.761719 1198.886719 1288.394531 1210.390625 1265.617188 C 1203.210938 1271.507812 1194.949219 1277.777344 1186.128906 1281.753906 C 1199.867188 1267.324219 1227.796875 1240.433594 1230.417969 1219.726562 C 1225.078125 1222.664062 1219.945312 1225.832031 1214.660156 1228.863281 C 1215.625 1226.992188 1216.589844 1225.125 1217.554688 1223.230469 C 1230.578125 1209.039062 1242.589844 1194.398438 1256.652344 1181.738281 " fill-opacity="1" fill-rule="nonzero"/><g fill="#ffffff" fill-opacity="1"><g transform="translate(284.030033, 252.482975)"><g><path d="M 91.386719 -3.515625 L 84.070312 -3.515625 C 84.070312 -3.609375 84.070312 -3.609375 84.070312 -3.609375 L 81.695312 -9.5 L 87.109375 -9.5 L 81.980469 -22.132812 L 74.476562 -22.132812 L 72.101562 -28.117188 L 77.136719 -28.117188 L 71.054688 -43.222656 L 75.425781 -43.222656 L 74.667969 -45.21875 L 67.636719 -45.21875 L 63.742188 -54.8125 L 68.394531 -54.8125 L 65.925781 -60.796875 L 58.898438 -60.796875 L 55.382812 -69.441406 C 55.382812 -69.535156 55.285156 -69.632812 55.285156 -69.820312 L 51.203125 -69.820312 C 51.011719 -70.203125 50.824219 -70.582031 50.726562 -70.867188 C 50.632812 -71.152344 50.441406 -71.4375 50.347656 -71.816406 L 62.222656 -71.816406 C 61.273438 -74.285156 59.46875 -76.375 57.1875 -77.707031 L 54.335938 -77.707031 C 52.628906 -78.75 50.632812 -79.320312 48.449219 -79.320312 C 46.359375 -79.320312 44.269531 -78.75 42.558594 -77.707031 L 45.3125 -77.707031 C 45.121094 -77.609375 44.933594 -77.421875 44.648438 -77.324219 C 44.171875 -77.039062 43.699219 -76.660156 43.316406 -76.375 C 42.179688 -75.425781 41.226562 -73.90625 40.183594 -71.816406 L 28.308594 -71.816406 C 28.023438 -71.152344 27.738281 -70.484375 27.453125 -69.820312 L 31.441406 -69.820312 C 31.441406 -69.632812 31.347656 -69.535156 31.347656 -69.441406 L 27.832031 -60.796875 L 34.863281 -60.796875 L 32.488281 -54.8125 L 27.832031 -54.8125 L 23.9375 -45.21875 L 30.96875 -45.21875 L 30.207031 -43.222656 L 25.742188 -43.222656 L 19.664062 -28.117188 L 14.628906 -28.117188 L 12.253906 -22.132812 L 19.757812 -22.132812 L 14.628906 -9.5 L 9.121094 -9.5 L 6.839844 -3.609375 C 6.839844 -3.609375 6.746094 -3.609375 6.746094 -3.515625 L 14.152344 -3.515625 C 13.871094 -2.753906 13.773438 -2.183594 13.871094 -1.613281 L 6.269531 -1.613281 C 6.363281 -1.519531 6.363281 -1.425781 6.363281 -1.328125 C 6.460938 -0.761719 6.933594 0.09375 8.453125 0.09375 L 18.902344 0.09375 C 20.042969 0.09375 20.898438 -0.570312 21.375 -1.613281 L 28.972656 -1.613281 C 29.070312 -1.710938 29.164062 -1.804688 29.164062 -1.898438 L 29.828125 -3.515625 L 22.417969 -3.515625 L 24.792969 -9.5 L 30.304688 -9.5 L 32.679688 -15.484375 L 53.480469 -15.484375 C 54.527344 -15.484375 55.476562 -15.960938 55.953125 -16.8125 C 56.523438 -17.574219 56.617188 -18.617188 56.332031 -19.570312 L 55.285156 -22.132812 L 47.78125 -22.132812 L 45.40625 -28.023438 C 45.40625 -28.023438 45.40625 -28.117188 45.40625 -28.117188 L 50.441406 -28.117188 C 49.96875 -29.164062 48.921875 -29.921875 47.6875 -29.921875 L 36.003906 -29.921875 L 37.714844 -34.199219 L 47.210938 -34.199219 L 47.210938 -35.242188 L 38.09375 -35.242188 L 41.226562 -43.222656 L 45.597656 -43.222656 L 46.453125 -45.21875 L 39.421875 -45.21875 L 43.222656 -54.8125 L 47.878906 -54.8125 L 50.15625 -60.703125 C 50.253906 -60.796875 50.253906 -60.796875 50.253906 -60.796875 L 50.824219 -60.796875 L 53.195312 -54.8125 L 48.542969 -54.8125 L 52.4375 -45.21875 L 59.46875 -45.21875 L 60.226562 -43.222656 L 55.855469 -43.222656 L 61.839844 -28.117188 L 56.808594 -28.117188 L 59.183594 -22.132812 L 66.6875 -22.132812 L 71.816406 -9.5 L 66.304688 -9.5 L 68.679688 -3.515625 L 76.089844 -3.515625 L 76.660156 -1.996094 C 76.757812 -1.804688 76.851562 -1.710938 76.851562 -1.613281 L 69.25 -1.613281 C 69.820312 -0.570312 70.675781 0.09375 71.816406 0.09375 L 81.980469 0.09375 C 83.5 0.09375 83.878906 -0.855469 84.070312 -1.328125 C 84.070312 -1.328125 84.070312 -1.519531 84.070312 -1.613281 L 91.671875 -1.613281 C 91.765625 -2.183594 91.671875 -2.753906 91.386719 -3.515625 Z M 43.414062 -11.96875 L 59.371094 -11.96875 L 59.371094 -11.019531 L 43.414062 -11.019531 Z M 26.882812 -6.746094 L 37.332031 -6.746094 L 37.332031 -5.699219 L 26.882812 -5.699219 Z M 26.882812 -6.746094 "/></g></g></g><g fill="#ffffff" fill-opacity="1"><g transform="translate(382.061992, 252.482975)"><g><path d="M 67.636719 -5.035156 L 67.636719 -10.734375 C 67.636719 -13.679688 65.738281 -14.058594 64.976562 -14.058594 L 34.101562 -14.058594 C 32.109375 -14.058594 30.398438 -14.25 29.164062 -14.722656 L 24.320312 -14.722656 C 23.179688 -15.105469 22.230469 -15.863281 21.5625 -16.8125 C 20.804688 -17.859375 20.328125 -19.285156 19.949219 -20.992188 C 19.949219 -20.992188 19.949219 -20.992188 19.949219 -21.089844 L 24.128906 -21.089844 C 23.84375 -22.894531 23.652344 -25.269531 23.652344 -28.117188 L 23.652344 -31.347656 L 32.011719 -31.347656 L 32.011719 -33.4375 L 23.9375 -33.4375 L 23.9375 -49.585938 L 19.949219 -49.585938 L 19.949219 -55.953125 L 37.144531 -55.953125 L 37.144531 -60.226562 L 21.277344 -60.226562 L 21.277344 -66.589844 L 23.9375 -66.589844 L 23.9375 -72.859375 L 19.09375 -72.859375 L 19.09375 -74.949219 C 19.09375 -77.992188 17.195312 -78.277344 16.433594 -78.277344 L 7.695312 -78.277344 C 6.839844 -78.277344 4.941406 -77.992188 4.941406 -74.949219 L 4.941406 -72.859375 L 9.878906 -72.859375 L 9.878906 -66.589844 L 1.519531 -66.589844 L 1.519531 -60.226562 L 8.835938 -60.226562 L 8.835938 -55.953125 L 5.792969 -55.953125 L 5.792969 -49.585938 L 9.878906 -49.585938 L 9.878906 -33.4375 L 5.128906 -33.4375 L 5.128906 -31.347656 L 9.59375 -31.347656 L 9.59375 -29.734375 C 9.59375 -26.503906 9.785156 -23.652344 10.070312 -21.089844 L 5.792969 -21.089844 C 6.078125 -19.285156 6.269531 -17.574219 6.648438 -16.148438 C 6.746094 -15.578125 6.933594 -15.199219 7.03125 -14.722656 L 11.78125 -14.722656 C 12.632812 -11.589844 13.871094 -8.835938 15.578125 -6.839844 C 16.054688 -6.175781 16.527344 -5.605469 17.097656 -5.035156 L 7.980469 -5.035156 C 8.835938 -4.273438 9.785156 -3.609375 10.828125 -2.945312 L 22.230469 -2.945312 C 23.179688 -2.375 24.128906 -1.898438 25.171875 -1.519531 C 28.117188 -0.476562 31.726562 0.09375 35.8125 0.09375 L 67.257812 0.09375 C 68.015625 0.09375 69.726562 -0.285156 69.820312 -2.945312 L 72.671875 -2.945312 C 72.671875 -3.039062 72.671875 -3.136719 72.671875 -3.230469 L 72.671875 -5.035156 Z M 49.777344 -36.761719 L 35.90625 -36.761719 L 35.90625 -37.996094 L 49.777344 -37.996094 Z M 45.3125 -20.519531 L 25.363281 -20.519531 L 25.363281 -21.5625 L 45.3125 -21.5625 Z M 48.351562 -66.6875 L 28.878906 -66.6875 L 28.878906 -68.585938 L 48.351562 -68.585938 Z M 48.351562 -66.6875 "/></g></g></g><g fill="#ffffff" fill-opacity="1"><g transform="translate(459.480648, 252.482975)"><g><path d="M 70.105469 -53.007812 C 70.105469 -53.765625 70.105469 -54.527344 70.105469 -55.285156 C 70.105469 -58.328125 69.917969 -61.082031 69.441406 -63.550781 L 73.527344 -63.550781 C 73.429688 -64.3125 73.242188 -65.070312 73.050781 -65.832031 L 66.972656 -65.832031 C 66.304688 -68.300781 65.355469 -70.484375 64.027344 -72.195312 C 63.929688 -72.386719 63.835938 -72.480469 63.648438 -72.671875 L 70.769531 -72.671875 C 67.828125 -76.375 63.265625 -78.277344 57.09375 -78.277344 L 13.300781 -78.277344 C 12.445312 -78.277344 10.542969 -77.992188 10.542969 -74.949219 L 10.542969 -72.671875 L 3.515625 -72.671875 L 3.515625 -67.445312 C 3.515625 -66.78125 3.609375 -66.210938 3.800781 -65.832031 L 13.585938 -65.832031 C 14.152344 -64.40625 15.390625 -64.214844 16.054688 -64.214844 L 57.378906 -64.214844 C 58.707031 -64.214844 59.847656 -63.929688 60.703125 -63.550781 L 52.816406 -63.550781 C 53.578125 -63.171875 54.148438 -62.792969 54.527344 -62.125 C 55.570312 -60.703125 56.046875 -58.421875 56.046875 -55.285156 C 56.046875 -54.433594 56.046875 -53.765625 55.953125 -53.007812 L 64.882812 -53.007812 C 64.691406 -51.011719 64.214844 -49.492188 63.457031 -48.449219 C 62.507812 -47.023438 60.796875 -46.359375 58.421875 -46.359375 L 17.003906 -46.359375 C 16.71875 -46.359375 16.339844 -46.359375 15.960938 -46.167969 L 9.878906 -46.167969 C 9.121094 -45.882812 8.265625 -45.027344 8.265625 -43.128906 L 8.265625 -34.957031 L 0.476562 -34.957031 L 0.476562 -32.679688 L 11.96875 -32.679688 L 11.96875 -15.199219 L 9.40625 -15.199219 L 9.40625 -8.359375 L -1.328125 -8.359375 L -1.328125 -3.609375 L 10.542969 -3.609375 L 10.542969 -3.230469 C 10.542969 -0.285156 12.445312 0.09375 13.300781 0.09375 L 21.945312 0.09375 C 22.796875 0.09375 24.605469 -0.285156 24.605469 -3.230469 L 24.605469 -3.609375 L 22.324219 -3.609375 L 22.324219 -8.359375 L 30.304688 -8.359375 L 30.304688 -15.199219 L 26.027344 -15.199219 L 26.027344 -32.296875 L 58.515625 -32.394531 C 60.132812 -32.394531 61.558594 -32.488281 62.886719 -32.679688 L 56.140625 -32.679688 C 58.515625 -33.152344 60.511719 -33.914062 62.222656 -34.957031 L 65.261719 -34.957031 C 66.6875 -35.90625 67.828125 -37.046875 68.871094 -38.378906 C 70.296875 -40.46875 71.339844 -43.128906 72.101562 -46.167969 L 74.855469 -46.167969 C 75.234375 -48.257812 75.617188 -50.539062 75.710938 -53.007812 Z M 31.160156 -57.09375 L 11.113281 -57.09375 L 11.113281 -59.5625 L 31.160156 -59.5625 Z M 48.921875 -51.105469 L 33.628906 -51.105469 L 33.628906 -53.007812 L 48.921875 -53.007812 Z M 57.09375 -20.042969 L 32.867188 -20.042969 L 32.867188 -21.945312 L 57.09375 -21.945312 Z M 43.601562 -27.167969 L 26.027344 -27.167969 L 26.027344 -28.402344 L 43.601562 -28.402344 Z M 43.601562 -27.167969 "/></g></g></g><g fill="#ffffff" fill-opacity="1"><g transform="translate(544.118695, 252.482975)"><g><path d="M 54.8125 -59.46875 L 27.832031 -59.46875 L 27.832031 -60.796875 L 54.8125 -60.796875 Z M 53.578125 -25.269531 L 33.816406 -25.269531 L 33.816406 -26.21875 L 53.578125 -26.21875 Z M 47.402344 -2.089844 L 31.441406 -2.089844 L 31.441406 -3.324219 L 47.402344 -3.324219 Z M 81.695312 -39.136719 L 81.695312 -41.039062 L 71.722656 -41.039062 L 71.722656 -50.726562 L 79.511719 -50.726562 L 79.511719 -56.617188 L 72.480469 -56.617188 L 72.480469 -65.640625 L 70.484375 -65.640625 L 70.484375 -67.636719 L 81.03125 -67.636719 L 81.03125 -73.527344 L 73.144531 -73.527344 L 73.144531 -74.949219 C 73.144531 -77.894531 71.246094 -78.277344 70.390625 -78.277344 L 61.746094 -78.277344 C 60.890625 -78.277344 59.085938 -77.894531 59.085938 -74.949219 L 59.085938 -73.527344 L 66.972656 -73.527344 L 66.972656 -67.636719 L 40.847656 -67.636719 L 40.847656 -65.640625 L 58.421875 -65.640625 L 58.421875 -56.617188 L 65.453125 -56.617188 L 65.453125 -50.726562 L 57.660156 -50.726562 L 57.660156 -46.546875 L 21.660156 -46.546875 L 21.660156 -50.726562 L 29.542969 -50.726562 L 29.542969 -56.617188 L 22.417969 -56.617188 L 22.417969 -65.640625 L 20.519531 -65.640625 L 20.519531 -67.636719 L 30.96875 -67.636719 L 30.96875 -73.527344 L 23.082031 -73.527344 L 23.082031 -74.949219 C 23.082031 -77.894531 21.277344 -78.277344 20.425781 -78.277344 L 11.78125 -78.277344 C 10.925781 -78.277344 9.023438 -77.894531 9.023438 -74.949219 L 9.023438 -73.527344 L 16.910156 -73.527344 L 16.910156 -67.636719 L 2.851562 -67.636719 L 2.851562 -65.640625 L 8.359375 -65.640625 L 8.359375 -56.617188 L 15.390625 -56.617188 L 15.390625 -50.726562 L 7.597656 -50.726562 L 7.597656 -41.039062 L 32.582031 -41.039062 L 32.582031 -39.136719 L 6.746094 -39.136719 L 6.746094 -23.9375 L 14.722656 -23.9375 L 14.722656 -18.050781 L 11.683594 -18.050781 L 11.683594 -13.964844 L 6.175781 -13.964844 L 6.175781 -8.074219 L 13.203125 -8.074219 L 13.203125 -3.230469 C 13.203125 -0.285156 15.105469 0.09375 15.960938 0.09375 L 24.699219 0.09375 C 25.457031 0.09375 27.261719 -0.285156 27.261719 -3.230469 L 27.261719 -8.074219 L 20.234375 -8.074219 L 20.234375 -13.964844 L 44.457031 -13.964844 L 44.457031 -18.050781 L 28.785156 -18.050781 L 28.785156 -23.9375 L 21.753906 -23.9375 L 21.753906 -32.488281 L 60.035156 -32.488281 L 60.035156 -23.9375 L 64.785156 -23.9375 L 64.785156 -18.050781 L 58.421875 -18.050781 L 58.421875 -13.964844 L 56.238281 -13.964844 L 56.238281 -8.074219 L 63.265625 -8.074219 L 63.265625 -3.230469 C 63.265625 -0.285156 65.070312 0.09375 65.925781 0.09375 L 74.570312 0.09375 C 75.425781 0.09375 77.324219 -0.285156 77.324219 -3.230469 L 77.324219 -8.074219 L 70.296875 -8.074219 L 70.296875 -13.964844 L 77.421875 -13.964844 L 77.421875 -18.050781 L 78.847656 -18.050781 L 78.847656 -23.9375 L 74.949219 -23.9375 L 74.949219 -39.136719 Z M 81.695312 -39.136719 "/></g></g></g><g fill="#ffffff" fill-opacity="1"><g transform="translate(628.186803, 252.482975)"><g><path d="M 91.386719 -3.515625 L 84.070312 -3.515625 C 84.070312 -3.609375 84.070312 -3.609375 84.070312 -3.609375 L 81.695312 -9.5 L 87.109375 -9.5 L 81.980469 -22.132812 L 74.476562 -22.132812 L 72.101562 -28.117188 L 77.136719 -28.117188 L 71.054688 -43.222656 L 75.425781 -43.222656 L 74.667969 -45.21875 L 67.636719 -45.21875 L 63.742188 -54.8125 L 68.394531 -54.8125 L 65.925781 -60.796875 L 58.898438 -60.796875 L 55.382812 -69.441406 C 55.382812 -69.535156 55.285156 -69.632812 55.285156 -69.820312 L 51.203125 -69.820312 C 51.011719 -70.203125 50.824219 -70.582031 50.726562 -70.867188 C 50.632812 -71.152344 50.441406 -71.4375 50.347656 -71.816406 L 62.222656 -71.816406 C 61.273438 -74.285156 59.46875 -76.375 57.1875 -77.707031 L 54.335938 -77.707031 C 52.628906 -78.75 50.632812 -79.320312 48.449219 -79.320312 C 46.359375 -79.320312 44.269531 -78.75 42.558594 -77.707031 L 45.3125 -77.707031 C 45.121094 -77.609375 44.933594 -77.421875 44.648438 -77.324219 C 44.171875 -77.039062 43.699219 -76.660156 43.316406 -76.375 C 42.179688 -75.425781 41.226562 -73.90625 40.183594 -71.816406 L 28.308594 -71.816406 C 28.023438 -71.152344 27.738281 -70.484375 27.453125 -69.820312 L 31.441406 -69.820312 C 31.441406 -69.632812 31.347656 -69.535156 31.347656 -69.441406 L 27.832031 -60.796875 L 34.863281 -60.796875 L 32.488281 -54.8125 L 27.832031 -54.8125 L 23.9375 -45.21875 L 30.96875 -45.21875 L 30.207031 -43.222656 L 25.742188 -43.222656 L 19.664062 -28.117188 L 14.628906 -28.117188 L 12.253906 -22.132812 L 19.757812 -22.132812 L 14.628906 -9.5 L 9.121094 -9.5 L 6.839844 -3.609375 C 6.839844 -3.609375 6.746094 -3.609375 6.746094 -3.515625 L 14.152344 -3.515625 C 13.871094 -2.753906 13.773438 -2.183594 13.871094 -1.613281 L 6.269531 -1.613281 C 6.363281 -1.519531 6.363281 -1.425781 6.363281 -1.328125 C 6.460938 -0.761719 6.933594 0.09375 8.453125 0.09375 L 18.902344 0.09375 C 20.042969 0.09375 20.898438 -0.570312 21.375 -1.613281 L 28.972656 -1.613281 C 29.070312 -1.710938 29.164062 -1.804688 29.164062 -1.898438 L 29.828125 -3.515625 L 22.417969 -3.515625 L 24.792969 -9.5 L 30.304688 -9.5 L 32.679688 -15.484375 L 53.480469 -15.484375 C 54.527344 -15.484375 55.476562 -15.960938 55.953125 -16.8125 C 56.523438 -17.574219 56.617188 -18.617188 56.332031 -19.570312 L 55.285156 -22.132812 L 47.78125 -22.132812 L 45.40625 -28.023438 C 45.40625 -28.023438 45.40625 -28.117188 45.40625 -28.117188 L 50.441406 -28.117188 C 49.96875 -29.164062 48.921875 -29.921875 47.6875 -29.921875 L 36.003906 -29.921875 L 37.714844 -34.199219 L 47.210938 -34.199219 L 47.210938 -35.242188 L 38.09375 -35.242188 L 41.226562 -43.222656 L 45.597656 -43.222656 L 46.453125 -45.21875 L 39.421875 -45.21875 L 43.222656 -54.8125 L 47.878906 -54.8125 L 50.15625 -60.703125 C 50.253906 -60.796875 50.253906 -60.796875 50.253906 -60.796875 L 50.824219 -60.796875 L 53.195312 -54.8125 L 48.542969 -54.8125 L 52.4375 -45.21875 L 59.46875 -45.21875 L 60.226562 -43.222656 L 55.855469 -43.222656 L 61.839844 -28.117188 L 56.808594 -28.117188 L 59.183594 -22.132812 L 66.6875 -22.132812 L 71.816406 -9.5 L 66.304688 -9.5 L 68.679688 -3.515625 L 76.089844 -3.515625 L 76.660156 -1.996094 C 76.757812 -1.804688 76.851562 -1.710938 76.851562 -1.613281 L 69.25 -1.613281 C 69.820312 -0.570312 70.675781 0.09375 71.816406 0.09375 L 81.980469 0.09375 C 83.5 0.09375 83.878906 -0.855469 84.070312 -1.328125 C 84.070312 -1.328125 84.070312 -1.519531 84.070312 -1.613281 L 91.671875 -1.613281 C 91.765625 -2.183594 91.671875 -2.753906 91.386719 -3.515625 Z M 43.414062 -11.96875 L 59.371094 -11.96875 L 59.371094 -11.019531 L 43.414062 -11.019531 Z M 26.882812 -6.746094 L 37.332031 -6.746094 L 37.332031 -5.699219 L 26.882812 -5.699219 Z M 26.882812 -6.746094 "/></g></g></g><g fill="#ffffff" fill-opacity="1"><g transform="translate(726.218762, 252.482975)"><g><path d="M 70.105469 -53.007812 C 70.105469 -53.765625 70.105469 -54.527344 70.105469 -55.285156 C 70.105469 -58.328125 69.917969 -61.082031 69.441406 -63.550781 L 73.527344 -63.550781 C 73.429688 -64.3125 73.242188 -65.070312 73.050781 -65.832031 L 66.972656 -65.832031 C 66.304688 -68.300781 65.355469 -70.484375 64.027344 -72.195312 C 63.929688 -72.386719 63.835938 -72.480469 63.648438 -72.671875 L 70.769531 -72.671875 C 67.828125 -76.375 63.265625 -78.277344 57.09375 -78.277344 L 13.300781 -78.277344 C 12.445312 -78.277344 10.542969 -77.992188 10.542969 -74.949219 L 10.542969 -72.671875 L 3.515625 -72.671875 L 3.515625 -67.445312 C 3.515625 -66.78125 3.609375 -66.210938 3.800781 -65.832031 L 13.585938 -65.832031 C 14.152344 -64.40625 15.390625 -64.214844 16.054688 -64.214844 L 57.378906 -64.214844 C 58.707031 -64.214844 59.847656 -63.929688 60.703125 -63.550781 L 52.816406 -63.550781 C 53.578125 -63.171875 54.148438 -62.792969 54.527344 -62.125 C 55.570312 -60.703125 56.046875 -58.421875 56.046875 -55.285156 C 56.046875 -54.433594 56.046875 -53.765625 55.953125 -53.007812 L 64.882812 -53.007812 C 64.691406 -51.011719 64.214844 -49.492188 63.457031 -48.449219 C 62.507812 -47.023438 60.796875 -46.359375 58.421875 -46.359375 L 17.003906 -46.359375 C 16.71875 -46.359375 16.339844 -46.359375 15.960938 -46.167969 L 9.878906 -46.167969 C 9.121094 -45.882812 8.265625 -45.027344 8.265625 -43.128906 L 8.265625 -34.957031 L 0.476562 -34.957031 L 0.476562 -32.679688 L 11.96875 -32.679688 L 11.96875 -15.199219 L 9.40625 -15.199219 L 9.40625 -8.359375 L -1.328125 -8.359375 L -1.328125 -3.609375 L 10.542969 -3.609375 L 10.542969 -3.230469 C 10.542969 -0.285156 12.445312 0.09375 13.300781 0.09375 L 21.945312 0.09375 C 22.796875 0.09375 24.605469 -0.285156 24.605469 -3.230469 L 24.605469 -3.609375 L 22.324219 -3.609375 L 22.324219 -8.359375 L 30.304688 -8.359375 L 30.304688 -15.199219 L 26.027344 -15.199219 L 26.027344 -32.296875 L 58.515625 -32.394531 C 60.132812 -32.394531 61.558594 -32.488281 62.886719 -32.679688 L 56.140625 -32.679688 C 58.515625 -33.152344 60.511719 -33.914062 62.222656 -34.957031 L 65.261719 -34.957031 C 66.6875 -35.90625 67.828125 -37.046875 68.871094 -38.378906 C 70.296875 -40.46875 71.339844 -43.128906 72.101562 -46.167969 L 74.855469 -46.167969 C 75.234375 -48.257812 75.617188 -50.539062 75.710938 -53.007812 Z M 31.160156 -57.09375 L 11.113281 -57.09375 L 11.113281 -59.5625 L 31.160156 -59.5625 Z M 48.921875 -51.105469 L 33.628906 -51.105469 L 33.628906 -53.007812 L 48.921875 -53.007812 Z M 57.09375 -20.042969 L 32.867188 -20.042969 L 32.867188 -21.945312 L 57.09375 -21.945312 Z M 43.601562 -27.167969 L 26.027344 -27.167969 L 26.027344 -28.402344 L 43.601562 -28.402344 Z M 43.601562 -27.167969 "/></g></g></g><g fill="#ffffff" fill-opacity="1"><g transform="translate(810.856831, 252.482975)"><g><path d="M 91.386719 -3.515625 L 84.070312 -3.515625 C 84.070312 -3.609375 84.070312 -3.609375 84.070312 -3.609375 L 81.695312 -9.5 L 87.109375 -9.5 L 81.980469 -22.132812 L 74.476562 -22.132812 L 72.101562 -28.117188 L 77.136719 -28.117188 L 71.054688 -43.222656 L 75.425781 -43.222656 L 74.667969 -45.21875 L 67.636719 -45.21875 L 63.742188 -54.8125 L 68.394531 -54.8125 L 65.925781 -60.796875 L 58.898438 -60.796875 L 55.382812 -69.441406 C 55.382812 -69.535156 55.285156 -69.632812 55.285156 -69.820312 L 51.203125 -69.820312 C 51.011719 -70.203125 50.824219 -70.582031 50.726562 -70.867188 C 50.632812 -71.152344 50.441406 -71.4375 50.347656 -71.816406 L 62.222656 -71.816406 C 61.273438 -74.285156 59.46875 -76.375 57.1875 -77.707031 L 54.335938 -77.707031 C 52.628906 -78.75 50.632812 -79.320312 48.449219 -79.320312 C 46.359375 -79.320312 44.269531 -78.75 42.558594 -77.707031 L 45.3125 -77.707031 C 45.121094 -77.609375 44.933594 -77.421875 44.648438 -77.324219 C 44.171875 -77.039062 43.699219 -76.660156 43.316406 -76.375 C 42.179688 -75.425781 41.226562 -73.90625 40.183594 -71.816406 L 28.308594 -71.816406 C 28.023438 -71.152344 27.738281 -70.484375 27.453125 -69.820312 L 31.441406 -69.820312 C 31.441406 -69.632812 31.347656 -69.535156 31.347656 -69.441406 L 27.832031 -60.796875 L 34.863281 -60.796875 L 32.488281 -54.8125 L 27.832031 -54.8125 L 23.9375 -45.21875 L 30.96875 -45.21875 L 30.207031 -43.222656 L 25.742188 -43.222656 L 19.664062 -28.117188 L 14.628906 -28.117188 L 12.253906 -22.132812 L 19.757812 -22.132812 L 14.628906 -9.5 L 9.121094 -9.5 L 6.839844 -3.609375 C 6.839844 -3.609375 6.746094 -3.609375 6.746094 -3.515625 L 14.152344 -3.515625 C 13.871094 -2.753906 13.773438 -2.183594 13.871094 -1.613281 L 6.269531 -1.613281 C 6.363281 -1.519531 6.363281 -1.425781 6.363281 -1.328125 C 6.460938 -0.761719 6.933594 0.09375 8.453125 0.09375 L 18.902344 0.09375 C 20.042969 0.09375 20.898438 -0.570312 21.375 -1.613281 L 28.972656 -1.613281 C 29.070312 -1.710938 29.164062 -1.804688 29.164062 -1.898438 L 29.828125 -3.515625 L 22.417969 -3.515625 L 24.792969 -9.5 L 30.304688 -9.5 L 32.679688 -15.484375 L 53.480469 -15.484375 C 54.527344 -15.484375 55.476562 -15.960938 55.953125 -16.8125 C 56.523438 -17.574219 56.617188 -18.617188 56.332031 -19.570312 L 55.285156 -22.132812 L 47.78125 -22.132812 L 45.40625 -28.023438 C 45.40625 -28.023438 45.40625 -28.117188 45.40625 -28.117188 L 50.441406 -28.117188 C 49.96875 -29.164062 48.921875 -29.921875 47.6875 -29.921875 L 36.003906 -29.921875 L 37.714844 -34.199219 L 47.210938 -34.199219 L 47.210938 -35.242188 L 38.09375 -35.242188 L 41.226562 -43.222656 L 45.597656 -43.222656 L 46.453125 -45.21875 L 39.421875 -45.21875 L 43.222656 -54.8125 L 47.878906 -54.8125 L 50.15625 -60.703125 C 50.253906 -60.796875 50.253906 -60.796875 50.253906 -60.796875 L 50.824219 -60.796875 L 53.195312 -54.8125 L 48.542969 -54.8125 L 52.4375 -45.21875 L 59.46875 -45.21875 L 60.226562 -43.222656 L 55.855469 -43.222656 L 61.839844 -28.117188 L 56.808594 -28.117188 L 59.183594 -22.132812 L 66.6875 -22.132812 L 71.816406 -9.5 L 66.304688 -9.5 L 68.679688 -3.515625 L 76.089844 -3.515625 L 76.660156 -1.996094 C 76.757812 -1.804688 76.851562 -1.710938 76.851562 -1.613281 L 69.25 -1.613281 C 69.820312 -0.570312 70.675781 0.09375 71.816406 0.09375 L 81.980469 0.09375 C 83.5 0.09375 83.878906 -0.855469 84.070312 -1.328125 C 84.070312 -1.328125 84.070312 -1.519531 84.070312 -1.613281 L 91.671875 -1.613281 C 91.765625 -2.183594 91.671875 -2.753906 91.386719 -3.515625 Z M 43.414062 -11.96875 L 59.371094 -11.96875 L 59.371094 -11.019531 L 43.414062 -11.019531 Z M 26.882812 -6.746094 L 37.332031 -6.746094 L 37.332031 -5.699219 L 26.882812 -5.699219 Z M 26.882812 -6.746094 "/></g></g></g><g fill="#ffffff" fill-opacity="1"><g transform="translate(908.88879, 252.482975)"><g><path d="M 82.929688 -62.316406 L 82.929688 -67.066406 L 72.957031 -67.066406 L 72.957031 -73.90625 L 79.984375 -73.90625 L 79.984375 -74.949219 C 79.984375 -77.992188 78.179688 -78.277344 77.324219 -78.277344 L 68.871094 -78.277344 C 68.113281 -78.277344 66.210938 -77.992188 66.210938 -74.949219 L 66.210938 -73.90625 L 59.183594 -73.90625 L 59.183594 -67.066406 L 64.597656 -67.066406 L 64.597656 -62.316406 L 51.011719 -62.316406 L 51.011719 -55.476562 L 65.355469 -55.476562 L 65.355469 -37.902344 L 60.320312 -37.902344 L 60.320312 -35.625 L 61.082031 -35.625 L 61.082031 -24.414062 L 58.230469 -24.414062 L 58.230469 -17.859375 C 58.230469 -17.765625 58.230469 -17.765625 58.230469 -17.667969 L 57.757812 -17.667969 C 57.660156 -17.667969 57.660156 -17.667969 57.472656 -17.953125 L 53.863281 -24.414062 L 56.710938 -24.414062 L 50.441406 -35.625 L 56.617188 -35.625 L 55.382812 -37.902344 L 53.386719 -37.902344 L 43.507812 -55.476562 L 36.953125 -55.476562 L 33.058594 -62.316406 L 38.949219 -62.316406 L 36.289062 -67.066406 L 30.875 -67.066406 L 28.402344 -71.339844 C 27.929688 -72.386719 27.453125 -73.144531 26.980469 -73.90625 L 34.007812 -73.90625 C 33.816406 -74.191406 33.628906 -74.476562 33.4375 -74.761719 C 32.773438 -75.710938 32.109375 -76.472656 31.347656 -76.945312 C 30.589844 -77.515625 29.734375 -77.894531 28.785156 -78.085938 C 27.832031 -78.179688 26.695312 -78.277344 25.363281 -78.277344 L 18.335938 -78.277344 C 15.578125 -78.277344 13.488281 -77.324219 12.160156 -75.617188 C 11.78125 -75.140625 11.496094 -74.570312 11.210938 -73.90625 L 4.179688 -73.90625 C 3.515625 -72.292969 3.230469 -70.011719 3.136719 -67.066406 L 8.550781 -67.066406 C 8.550781 -66.6875 8.550781 -66.402344 8.550781 -66.023438 L 8.550781 -62.316406 L 2.660156 -62.316406 L 2.660156 -55.476562 L 9.214844 -55.476562 L 9.214844 -37.902344 L 3.230469 -37.902344 L 3.230469 -35.625 L 5.035156 -35.625 L 5.035156 -24.414062 L 1.898438 -24.414062 L 1.898438 -17.574219 L 10.355469 -17.574219 L 10.355469 -7.125 L 3.703125 -7.125 L 3.703125 -4.84375 L 11.398438 -4.84375 L 11.398438 -3.230469 C 11.398438 -0.285156 13.300781 0.09375 14.152344 0.09375 L 22.609375 0.09375 C 23.367188 0.09375 25.269531 -0.285156 25.269531 -3.230469 L 25.269531 -4.84375 L 17.574219 -4.84375 L 17.574219 -7.125 L 24.222656 -7.125 L 24.222656 -24.414062 L 18.902344 -24.414062 L 18.902344 -35.625 L 30.019531 -35.625 L 30.019531 -37.902344 L 23.082031 -37.902344 L 23.082031 -55.476562 L 26.503906 -55.476562 L 36.382812 -37.902344 L 38.378906 -37.902344 L 39.707031 -35.625 L 33.535156 -35.625 L 39.804688 -24.414062 L 36.953125 -24.414062 L 40.753906 -17.574219 L 49.683594 -17.574219 L 55.570312 -7.125 L 43.316406 -7.125 L 43.507812 -6.839844 C 43.984375 -6.078125 44.457031 -5.414062 44.835938 -4.84375 L 50.15625 -4.84375 C 50.539062 -4.273438 50.917969 -3.703125 51.203125 -3.324219 C 51.867188 -2.375 52.53125 -1.710938 53.292969 -1.234375 C 54.050781 -0.664062 54.90625 -0.378906 55.855469 -0.191406 C 56.710938 0 57.851562 0.09375 59.085938 0.09375 L 66.023438 0.09375 C 68.777344 0.09375 70.867188 -0.855469 72.195312 -2.660156 C 72.671875 -3.230469 72.957031 -3.988281 73.242188 -4.84375 L 72.195312 -4.84375 C 72.480469 -5.507812 72.671875 -6.269531 72.859375 -7.125 L 80.554688 -7.125 C 80.839844 -8.550781 80.9375 -10.257812 80.9375 -12.160156 L 80.9375 -17.574219 L 72.007812 -17.574219 L 72.007812 -24.414062 L 74.855469 -24.414062 L 74.855469 -35.625 L 82.835938 -35.625 L 82.835938 -37.902344 L 79.035156 -37.902344 L 79.035156 -55.476562 L 72.480469 -55.476562 L 72.480469 -62.316406 Z M 49.398438 -71.054688 L 35.527344 -71.054688 L 35.527344 -72.292969 L 49.398438 -72.292969 Z M 42.460938 -11.019531 L 29.164062 -11.019531 L 29.164062 -12.0625 L 42.460938 -12.0625 Z M 57.09375 -64.40625 L 43.792969 -64.40625 L 43.792969 -65.453125 L 57.09375 -65.453125 Z M 57.09375 -64.40625 "/></g></g></g><g fill="#ffffff" fill-opacity="1"><g transform="translate(998.751407, 252.482975)"><g><path d="M 64.597656 -74.761719 L 64.597656 -75.140625 C 64.597656 -78.085938 62.792969 -78.464844 61.9375 -78.464844 L 7.410156 -78.464844 C 6.554688 -78.464844 4.75 -78.085938 4.75 -75.046875 L 4.75 -74.761719 L 15.390625 -74.761719 L 15.390625 -72.859375 L 4.75 -72.859375 L 4.75 -67.636719 C 4.75 -67.445312 4.75 -67.160156 4.84375 -66.972656 L 10.734375 -66.972656 C 11.019531 -64.691406 12.632812 -64.40625 13.300781 -64.40625 L 67.921875 -64.3125 C 68.585938 -64.3125 70.203125 -64.597656 70.484375 -66.972656 L 64.597656 -66.972656 C 64.597656 -67.160156 64.597656 -67.351562 64.597656 -67.636719 L 64.597656 -72.859375 L 75.234375 -72.859375 L 75.234375 -74.761719 Z M 70.203125 -7.316406 L 70.203125 -13.585938 C 70.203125 -15.007812 69.726562 -15.769531 69.15625 -16.246094 L 77.515625 -16.246094 C 76.945312 -16.8125 76.1875 -16.910156 75.804688 -16.910156 L 42.273438 -16.910156 C 40.277344 -16.910156 38.664062 -17.097656 37.429688 -17.574219 C 36.191406 -17.953125 35.242188 -18.617188 34.484375 -19.664062 C 34.007812 -20.328125 33.628906 -21.183594 33.34375 -22.132812 L 25.648438 -22.132812 C 25.457031 -22.609375 25.269531 -23.273438 25.171875 -23.84375 C 25.078125 -24.414062 25.078125 -24.984375 24.984375 -25.554688 C 24.984375 -25.554688 24.984375 -26.125 24.984375 -26.980469 L 60.132812 -26.980469 C 60.132812 -27.644531 60.132812 -28.59375 60.132812 -29.351562 L 25.078125 -29.351562 C 25.078125 -30.207031 25.078125 -31.0625 25.078125 -31.632812 L 30.875 -31.632812 C 30.875 -32.109375 30.875 -32.394531 30.875 -32.394531 L 73.335938 -32.394531 C 73.90625 -32.394531 74.949219 -32.488281 75.519531 -33.535156 L 69.726562 -33.535156 C 69.917969 -34.007812 70.203125 -34.671875 70.203125 -35.625 L 70.203125 -39.234375 L 74.570312 -39.234375 L 74.570312 -41.894531 L 70.203125 -41.894531 L 70.203125 -43.128906 C 70.203125 -46.074219 68.300781 -46.453125 67.542969 -46.453125 L 18.523438 -46.359375 C 15.769531 -46.167969 13.394531 -44.648438 11.96875 -42.367188 C 11.875 -42.179688 11.875 -41.988281 11.78125 -41.894531 L 16.148438 -41.894531 C 15.863281 -41.226562 15.578125 -40.65625 15.390625 -39.898438 L 15.390625 -39.234375 L 11.019531 -39.234375 L 10.925781 -33.535156 L 16.71875 -33.535156 L 16.71875 -31.632812 L 11.019531 -31.632812 L 10.925781 -29.351562 L 20.234375 -29.351562 L 20.234375 -27.453125 C 20.234375 -27.359375 20.234375 -27.167969 20.234375 -26.980469 L 10.925781 -26.980469 C 11.019531 -25.269531 11.113281 -23.652344 11.210938 -22.132812 L 19 -22.132812 C 19.1875 -19.949219 19.472656 -18.050781 19.855469 -16.246094 L 11.496094 -16.246094 C 11.496094 -16.246094 11.589844 -16.148438 11.589844 -16.054688 C 12.347656 -12.632812 13.585938 -9.691406 15.292969 -7.316406 L 23.179688 -7.316406 C 23.273438 -7.21875 23.367188 -6.933594 23.558594 -6.746094 C 23.9375 -6.269531 24.320312 -5.890625 24.792969 -5.414062 L 17.003906 -5.414062 C 18.714844 -3.703125 20.804688 -2.375 23.179688 -1.519531 C 26.027344 -0.476562 29.636719 0.09375 33.816406 0.09375 L 67.542969 0.09375 C 68.394531 0.09375 70.296875 -0.285156 70.296875 -3.230469 L 70.296875 -5.414062 L 77.992188 -5.414062 L 77.992188 -7.316406 Z M 16.148438 -52.34375 L 47.59375 -52.34375 L 47.59375 -51.296875 L 16.148438 -51.296875 Z M 45.597656 -21.847656 L 66.6875 -21.847656 L 66.6875 -20.804688 L 45.597656 -20.804688 Z M 29.636719 -60.226562 L 61.839844 -60.226562 L 61.839844 -58.707031 L 29.636719 -58.707031 Z M 29.636719 -60.226562 "/></g></g></g><g fill="#ffffff" fill-opacity="1"><g transform="translate(1078.544826, 252.482975)"><g><path d="M 67.636719 -5.035156 L 67.636719 -10.734375 C 67.636719 -13.679688 65.738281 -14.058594 64.976562 -14.058594 L 34.101562 -14.058594 C 32.109375 -14.058594 30.398438 -14.25 29.164062 -14.722656 L 24.320312 -14.722656 C 23.179688 -15.105469 22.230469 -15.863281 21.5625 -16.8125 C 20.804688 -17.859375 20.328125 -19.285156 19.949219 -20.992188 C 19.949219 -20.992188 19.949219 -20.992188 19.949219 -21.089844 L 24.128906 -21.089844 C 23.84375 -22.894531 23.652344 -25.269531 23.652344 -28.117188 L 23.652344 -31.347656 L 32.011719 -31.347656 L 32.011719 -33.4375 L 23.9375 -33.4375 L 23.9375 -49.585938 L 19.949219 -49.585938 L 19.949219 -55.953125 L 37.144531 -55.953125 L 37.144531 -60.226562 L 21.277344 -60.226562 L 21.277344 -66.589844 L 23.9375 -66.589844 L 23.9375 -72.859375 L 19.09375 -72.859375 L 19.09375 -74.949219 C 19.09375 -77.992188 17.195312 -78.277344 16.433594 -78.277344 L 7.695312 -78.277344 C 6.839844 -78.277344 4.941406 -77.992188 4.941406 -74.949219 L 4.941406 -72.859375 L 9.878906 -72.859375 L 9.878906 -66.589844 L 1.519531 -66.589844 L 1.519531 -60.226562 L 8.835938 -60.226562 L 8.835938 -55.953125 L 5.792969 -55.953125 L 5.792969 -49.585938 L 9.878906 -49.585938 L 9.878906 -33.4375 L 5.128906 -33.4375 L 5.128906 -31.347656 L 9.59375 -31.347656 L 9.59375 -29.734375 C 9.59375 -26.503906 9.785156 -23.652344 10.070312 -21.089844 L 5.792969 -21.089844 C 6.078125 -19.285156 6.269531 -17.574219 6.648438 -16.148438 C 6.746094 -15.578125 6.933594 -15.199219 7.03125 -14.722656 L 11.78125 -14.722656 C 12.632812 -11.589844 13.871094 -8.835938 15.578125 -6.839844 C 16.054688 -6.175781 16.527344 -5.605469 17.097656 -5.035156 L 7.980469 -5.035156 C 8.835938 -4.273438 9.785156 -3.609375 10.828125 -2.945312 L 22.230469 -2.945312 C 23.179688 -2.375 24.128906 -1.898438 25.171875 -1.519531 C 28.117188 -0.476562 31.726562 0.09375 35.8125 0.09375 L 67.257812 0.09375 C 68.015625 0.09375 69.726562 -0.285156 69.820312 -2.945312 L 72.671875 -2.945312 C 72.671875 -3.039062 72.671875 -3.136719 72.671875 -3.230469 L 72.671875 -5.035156 Z M 49.777344 -36.761719 L 35.90625 -36.761719 L 35.90625 -37.996094 L 49.777344 -37.996094 Z M 45.3125 -20.519531 L 25.363281 -20.519531 L 25.363281 -21.5625 L 45.3125 -21.5625 Z M 48.351562 -66.6875 L 28.878906 -66.6875 L 28.878906 -68.585938 L 48.351562 -68.585938 Z M 48.351562 -66.6875 "/></g></g></g></svg>