<?xml version="1.0" encoding="UTF-8"?>
<svg xmlns="http://www.w3.org/2000/svg" viewBox="0 0 5000 5000">
  <defs>
    <style>
      .cls-1 {
        fill: #ffde59;
      }

      .cls-2 {
        fill: #283046;
      }

      .cls-3 {
        fill: #fce583;
      }
    </style>
  </defs>
  <g id="Layer_1" data-name="Layer 1">
    <circle class="cls-1" cx="2500" cy="2500" r="2500"/>
  </g>
  <g id="Layer_4" data-name="Layer 4">
    <ellipse class="cls-3" cx="2497.1" cy="4407.54" rx="1419.68" ry="261.46"/>
  </g>
  <g id="Layer_2" data-name="Layer 2">
    <path class="cls-2" d="m4145.41,3737.84c-20.47,6.27-43.03,11.82-64.06,16.16,2.38-5.74,4.71-11.43,6.94-16.99,15.7-15.48,34.37-29.87,51.81-41.11-26.23-18.58,2.65-54.32.53-80.88-6.65,6.6-13.08,13.35-19.52,20.09,11.72-48.88,15.03-90.46,12.55-126.67,6.34-69.41-21.57-152.83-27.47-216.99-11.17,20.82-11.45,47.88-28.95,63.41-1.04-1.45-2.06-2.9-3.12-4.34-10.58-36.84-34.49-81.15-22.24-117.62-7.28,16.73-13.08,41.24-23.51,60.01-5.93-7.22-11.71-14.38-17.21-21.56-16.95-44.44-10.27-110.1,13.15-144.17-12.77,14.93-22.8,34.93-35.11,50.2-8.33-39.09,37.83-106.12,52.76-144.71-28.2,17.53-39.44,44.9-64.44,64.66,32.14-58.14,58.05-120.66,108.9-167.79-36.32,16.92-68.19,39.07-95.17,65.25,14.36-73.6,33.24-131.51,33.24-131.51l-23.39,8.39c4.74-8.88,9.5-17.78,14.23-26.69-70.98,52.96-192.25,35.31-233.92,132.33-4.78-16.65-6.93-37.21-.68-51.2-12.83,25.93-27.24,49.35-34.77,78.1-3.19-15.01-8.92-39.33-13.3-48.22,3.65,49.39-21.54,96.66-22.03,145.81-17.74-17.81-18.67-45.69-30.56-64.54,14.27,38.49-7.29,59.69-17.4,94.43-7.73,26.65-7.7,55.08-3.55,82.81l-2.04-8.89c2.97,18.87,5.28,35.18,12.17,53.66.38,1.37.74,2.79,1.15,4.16l-.6-2.61c1.34,3.48,2.78,7.03,4.51,10.7-20.95-6.29-36.94-26.07-56.57-38.54,6.67,35.44,32.86,75.27,46.97,110.37,15.39,38.27,27.72,78.31,53.02,111.66-21.24-8.95-33.21-34.78-46.31-53.41-4.76,67.42,60.31,134.33,91.77,189.28-13.03-8-26.71-15.73-39.88-23.46,7.84,28.67,32.33,42.85,44.33,67.92-14.69-9.61-31.09-19.26-47.89-24.44,14.12,29.88,42.7,64.39,43.11,96.66-14.04-15.88-24.72-36.01-33.77-55.89,6.29,49.31,14.38,108.22,23.73,159.24-9.74-27.69-26.62-54.76-42.62-79.08,5.59,50.56,23.22,101.93,30.76,152.66-15.74-14.64-27.38-34.06-33-55.09,11.21,40.11,28.35,109.72,1.35,143.68-12.7-14.61-26.06-41.24-30.01-52.31,8.5,69.07-5.54,130.15-34.94,184.23-30.44,25.38-53.95,31.28-53.95,31.28,9.17-7.58,18.33-31.54,25.34-65.39,3.14,1.85,6.31,3.72,9.45,5.54,11.81-35.25,17.74-84.96,2.74-120.33.02-.6.02-1.17.05-1.78,6.54,6.41,17.45,11.96,23.98,19,.27-39.02-8.01-78.25-19.78-115.58,11.96,4.7,24.7,9.98,33.98,22.09,5.48-33.59-19.56-52.96-26.3-82.45,16.82,5.6,29.59,18.66,39.74,33.42-23.93-69.67-67.56-110.15-113.28-154.23-13.44-20.31-29.48-37.91-48.44-51.77,22.42,5.39,45.49,10.76,67.59,15.85-32.35-42.28-81.33-56.67-119.08-87.4,19.12-6.39,48.73-3.21,62.43-9.75-75.27,1.1-181.14-65.11-239.08-111.37,54.22.98,108.41-2.85,161.53-.02-144.37-9.79-212.82-133.58-286.98-239.05,29.76,2.19,60.58,10.38,91.42,12.78-39.17-16.73-97.09-37.26-115.74-74.17,31.22,6.7,79.44,5.71,106.64,2.55-66.37-7.3-148.64-22.09-181.09-87,24.89,15.84,64.68,21.82,92.31,11.47-71.43,6.63-104.74-68.69-144.05-112.99-33.48-37.74-79.76-68.85-129.97-94.39-90.17-63.1-173.62-81.96-198.62-119.93-39.99-60.76-82.95-127.45-82.95-127.45,14.81,2.95,22.2-16.31,22.2-16.31-41.48,7.41-65.19-36.27-65.19-36.27,23.71,2.25,19.27-18.56,19.27-18.56-37.03,2.95-54.81-22.23-54.81-22.23,26.66,1.49,14.81-16.31,14.81-16.31-51.84-4.44-57.77-50.37-57.77-50.37,34.07,2.95,25.17-19.28,25.17-19.28-42.95,0-41.47-40.98-41.47-40.98,23.69,21.3,48.88-.51,48.88-.51-13.34,4.44-44.44-20.77-44.44-20.77-26.67-23.7-31.11-13.32-53.33-23.7-22.22-10.37,0-20.74,0-20.74-40.01-5.93-48.89-56.32-48.89-56.32,28.16,4.44,29.65-19.26,29.65-19.26-29.65,7.39-14.84-13.34-14.84-13.34,31.11-2.99,22.23-17.79,22.23-17.79-23.72,2.97-40.01-2.95-65.19-27.49-25.18-24.51-2.97-45.11-2.97-45.11,19.27,31.11,28.15,56.3,100.75,39.99,72.6-16.29,47.41-56.3,47.41-56.3-63.7-45.95-81.48-117.09-124.45-168.94-42.97-51.89-32.59-112.65-32.59-112.65,10.37,4.46,32.59,0,32.59,0l-19.25-32.61c-19.27-44.46-2.97-77.06-25.36-142.27-22.4-65.21-152.44-165.97-170.19-189.69-17.78-23.7-38.53-38.54-50.38-139.3-11.85-100.78-23.71-112.63-62.23-148.2-38.49-35.56-91.85,38.53-91.85,38.53-51.84,0-68.14,47.42-66.65,103.75,1.46,56.32-1.49,105.22-34.07,96.32-32.6-8.88-28.16-74.09-28.16-74.09l-41.47,5.93c-118.54,7.41-81.49,142.27-81.49,142.27-2.97-34.09,17.77-28.16,17.77-28.16,0,0,41.49,154.14,35.56,237.1-1.13,15.71-2.68,30.75-4.78,45.14-16.51,11.4-35.18,18.82-51.66,14.89,10.9,2.02,21.16,6.84,32.88,8.81-14.38,15.97-34.54,24.25-55.09,26.91,13.71,10.15,29.12,14.14,45.99,12.25-32.76,30.56-48.67,84.07-103.53,84.43,13.96,6.24,21.31,10.23,38.09,10.13-13.13,11.57-33.75,19.79-51.68,21.02,12.29,2.57,19.56,7.92,32.64,8.9-32.62,18.49-63.27,33.15-89.48,61.27-20.5,21.97-33.09,51.94-60.69,65.89,29.93-3.19,70.35-5.4,94.2-18.73-3,27.18-33.86,53.68-49.76,65.25,10.76-4.1,24.49-5.4,35.77-8.3-6.84,19.75-17.83,41.24-37.89,48.12,14.78,7.65,31.12,5.69,45.79-2.65-14.04,18.45-28.82,36.18-45.9,51.89,15.39-1.46,26.07-1.25,39.97-7.23-9.51,16.5-14.06,41.78-30.86,56.37,8.88-7.83,21.93-12.08,32.14-17.77.64,3.25,1.34,6.56,2.04,9.92-3.25,14.22-6.01,26.63-8.19,36.52-20.63,16.86-38.28,53.83-44.9,72.67,11.79-8.5,20.11-8.47,33.58-13.2-32.33,21.22-67.73,80.52-73.45,119.58,12.44-12.19,28.52-23.21,46.54-26.21-40.34,50.9-64.99,122.34-59.64,186.71,13.71-29.36,24.32-51.89,52.33-70.79l-4.44,4.45c9.28,19.63-5.93,37.55-21.89,48.1,8.3-3.81,18.73-3.34,26.76-6.33-12.68,38.03-29.27,78.72-67.76,96.03,22.75,1.74,47.43,1.52,65.65-13.63-16.56,12.15-21.49,37.75-37.97,52.75,10.68-2.97,23.81-2.66,34.54-7.29-9.19,30.35-28.82,58.67-55.54,76.11,19.75,7.01,41.33,14.78,63.53,11.81-49.43,60.9-78.91,143.06-34.86,216.72,1.07-15.63,5.99-32.22,14.42-46.12-4.69,43.53,12.14,99.01,34.71,135.05-6.46-16.59-3.84-34.98,1.6-51.57,15.84,32.15,22.71,80.75,34.73,118.25,5.9-16.88,11.83-34.19,13.21-52.53,9.96,28.11,24.5,68.84,13.13,101.33,6.57-9.17,14.55-15.44,20.31-25.51-2.19,29.65-9.17,56.61-36.44,74.2,22.9-10.18,51.75-25.85,60.99-50.22-1.54,37.05,17.93,130.25-32.28,140.19,22.63-3.08,42.48-14.5,62.28-25.5,2.42,31.47-15.62,55.7-37.53,74.57,11.66-1.51,22.56-3.94,32.95-6.92-21.24,125.28-24.96,385.29-21.18,426.87,4.46,48.9-160,449.05-160,449.05-90.38-44.46-145.2,23.7-145.2,23.7-82.95-14.81-100.73,53.38-100.73,53.38-35.57,31.11,0,112.61,0,112.61h711.11v-219.34c16.29-5.93,32.59-50.39,38.53-105.21,5.93-54.83,17.78-120.04,94.82-268.24,1.51-2.93,2.97-5.81,4.44-8.72,19.88,14.14,38.38,31.87,45.48,66.2,20.55-33.83,20.74-69.56,23.55-108.91,19.35,15.01,34.77,34.06,52,51.36-31.2-33.88-11.18-88.21-37.89-123.36,18.6,9.8,28.88,28.96,46.66,40.07-5.88-22.49-18.75-47.15-20.73-70.31,17.89,8.54,35.78,16.65,55.32,17.54-42.29-33.08-50.06-86.62-62.13-137.85,23.52-2.69,81.33-8.02,108.12,1.3,34.09,11.87,34.09,44.46,38.53,68.16,1.3,6.9,5.57,22.4,10.2,42.81-18.27,41.03-40.44,78.31-96.05,87.36,12.53,4.09,23.54,9.25,38.02,9.83-10.95,36.32.72,83.81,20.63,115.56-11.03-22.31-7.89-47.35-.21-70.2,8.83,32.19,14.19,72.62,29.91,104.99,5.45,38.12,31.58,57.93,31.58,57.93-2.97-47.42,17.78-34.06,17.78-34.06,10.38,114.11,94.81,99.3,94.81,99.3-20.74-10.4-63.7-80.05-2.95-48.93,60.75,31.13,143.69,235.64,180.74,288.98,37.04,53.38-32.59,45.95-32.59,45.95-112.61-1.49-222.22-66.7-284.45-87.44-62.23-20.73-137.79,34.1-137.79,34.1-93.35,13.32-84.43,158.55-84.43,158.55,0,0,1223.71,4.46,1284.46,0,60.72-4.45,53.33-26.67,53.33-26.67l53.33-19.26c9.54-2.91,19.1-6.27,28.61-9.94,64.66-.46,132.12-6.46,182.88-43.12-33.58,14.1-74.64,15.41-110.45,7.97,3-1.77,5.97-3.62,8.97-5.47,48.39-18.09,109.47-25.52,136.72-74.74-16.86,7.54-35.12,12.44-53.84,13.38,8.96-7.75,17.91-15.9,26.83-24.37,28.78-11.98,59.57-21.89,86.12-36.59-19.52,6.99-40.99,18.63-60.85,11.59,3.94-4.06,7.88-8.09,11.81-12.29,38.89-11.47,90.51-16.37,114.59-45.08-29.41,8.81-51.12,15.01-78.97,5.09.91-1.06,1.8-2.19,2.72-3.27,65.74-21.73,115.36-43.43,159.26-100.29-1.99-1.58-3.21-5.86-3.34-8.35-26.16,11.74-54.34,25.4-83.18,25.23,58.97-41.47,107.88-97.33,141.07-163.04-20.71,16.99-44.54,35.08-69.99,46.55,39.63-41.62,120.2-119.19,127.76-178.93-15.4,8.47-30.21,17.61-45.46,26.36,2.78-5.4,5.57-10.78,8.35-16.25,37.57-40.94,72.22-83.17,112.78-119.69"/>
  </g>
  <g id="Layer_3" data-name="Layer 3">
    <path class="cls-2" d="m1165.18,970.89h-28.1v-.36l-9.12-22.63h20.8l-19.7-48.52h-28.82l-9.12-22.99h19.34l-23.36-58.02h16.79l-2.91-7.67h-27.01l-14.96-36.85h17.87l-9.48-22.99h-26.99l-13.5-33.2c0-.36-.38-.74-.38-1.46h-15.68c-.74-1.47-1.46-2.93-1.83-4.02-.36-1.1-1.1-2.19-1.46-3.65h45.61c-3.65-9.48-10.58-17.51-19.34-22.63h-10.95c-6.56-4.01-14.22-6.2-22.61-6.2s-16.05,2.19-22.63,6.2h10.58c-.74.38-1.46,1.1-2.55,1.47-1.83,1.1-3.65,2.55-5.12,3.65-4.37,3.65-8.03,9.48-12.03,17.51h-45.61c-1.1,2.55-2.19,5.12-3.29,7.67h15.32c0,.72-.36,1.1-.36,1.46l-13.5,33.2h27.01l-9.12,22.99h-17.88l-14.96,36.85h27.01l-2.93,7.67h-17.15l-23.35,58.02h-19.34l-9.12,22.99h28.82l-19.7,48.52h-21.16l-8.76,22.63s-.36,0-.36.36h28.45c-1.08,2.93-1.46,5.12-1.08,7.31h-29.2c.36.36.36.72.36,1.1.38,2.18,2.19,5.46,8.03,5.46h40.14c4.38,0,7.67-2.55,9.5-6.56h29.18c.38-.38.74-.74.74-1.1l2.55-6.21h-28.46l9.12-22.99h21.17l9.12-22.99h79.9c4.02,0,7.67-1.83,9.5-5.1,2.19-2.93,2.55-6.93,1.46-10.59l-4.02-9.84h-28.82l-9.12-22.63v-.36h19.34c-1.82-4.02-5.84-6.93-10.58-6.93h-44.88l6.57-16.43h36.47v-4.01h-35.02l12.03-30.65h16.79l3.29-7.67h-27.01l14.6-36.85h17.88l8.75-22.63.38-.36h2.19l9.11,22.99h-17.87l14.96,36.85h27.01l2.91,7.67h-16.79l22.99,58.02h-19.32l9.12,22.99h28.82l19.7,48.52h-21.17l9.12,22.99h28.46l2.19,5.84c.38.74.74,1.1.74,1.47h-29.2c2.19,4.01,5.48,6.56,9.86,6.56h39.04c5.84,0,7.29-3.65,8.03-5.46v-1.1h29.2c.36-2.19,0-4.38-1.1-7.31Zm-184.26-32.47h61.29v3.65h-61.29v-3.65Zm-63.5,20.06h40.14v4.02h-40.14v-4.02Z"/>
    <path class="cls-2" d="m1450.49,965.06v-21.89c0-11.31-7.29-12.77-10.22-12.77h-118.59c-7.65,0-14.22-.74-18.96-2.55h-18.6c-4.38-1.47-8.03-4.38-10.59-8.03-2.91-4.02-4.74-9.5-6.2-16.05v-.38h16.05c-1.1-6.93-1.83-16.05-1.83-26.99v-12.41h32.11v-8.03h-31.01v-62.03h-15.32v-24.46h66.05v-16.41h-60.95v-24.44h10.22v-24.08h-18.6v-8.03c0-11.69-7.29-12.78-10.22-12.78h-33.56c-3.29,0-10.58,1.1-10.58,12.78v8.03h18.96v24.08h-32.11v24.44h28.1v16.41h-11.69v24.46h15.69v62.03h-18.24v8.03h17.15v6.2c0,12.41.74,23.36,1.83,33.2h-16.43c1.1,6.93,1.83,13.5,3.29,18.98.38,2.19,1.1,3.65,1.47,5.48h18.24c3.27,12.03,8.03,22.61,14.58,30.28,1.83,2.55,3.65,4.74,5.84,6.93h-35.02c3.29,2.93,6.93,5.48,10.94,8.03h43.8c3.65,2.19,7.29,4.02,11.3,5.48,11.31,4.01,25.18,6.2,40.87,6.2h120.78c2.91,0,9.48-1.46,9.84-11.67h10.95v-8.03h-19.34Zm-68.6-121.86h-53.28v-4.74h53.28v4.74Zm-17.15,62.39h-76.62v-4.01h76.62v4.01Zm11.67-177.33h-74.79v-7.29h74.79v7.29Z"/>
    <path class="cls-2" d="m1757.34,780.8v-8.75c0-11.69-.72-22.27-2.55-31.75h15.69c-.38-2.93-1.1-5.84-1.83-8.76h-23.35c-2.57-9.48-6.21-17.87-11.31-24.44-.38-.74-.74-1.1-1.46-1.83h27.35c-11.3-14.22-28.82-21.53-52.53-21.53h-168.21c-3.29,0-10.59,1.1-10.59,12.78v8.75h-26.99v20.08c0,2.55.36,4.74,1.1,6.2h37.58c2.18,5.48,6.93,6.21,9.48,6.21h158.72c5.1,0,9.48,1.1,12.77,2.55h-30.29c2.93,1.46,5.12,2.91,6.57,5.48,4.01,5.46,5.84,14.22,5.84,26.27,0,3.27,0,5.84-.36,8.75h34.3c-.74,7.67-2.57,13.5-5.48,17.51-3.65,5.48-10.22,8.03-19.34,8.03h-159.08c-1.1,0-2.55,0-4.01.74h-23.36c-2.91,1.1-6.2,4.38-6.2,11.67v31.39h-29.92v8.75h44.14v67.14h-9.84v26.27h-41.23v18.24h45.6v1.46c0,11.31,7.31,12.77,10.59,12.77h33.2c3.27,0,10.22-1.46,10.22-12.77v-1.46h-8.76v-18.24h30.65v-26.27h-16.43v-65.67l124.79-.38c6.21,0,11.69-.36,16.79-1.1h-25.91c9.12-1.82,16.79-4.74,23.36-8.75h11.67c5.48-3.65,9.86-8.03,13.86-13.14,5.48-8.03,9.48-18.24,12.41-29.92h10.58c1.46-8.03,2.93-16.79,3.29-26.27h-21.53Zm-149.59-15.69h-77v-9.48h77v9.48Zm68.22,23h-58.74v-7.31h58.74v7.31Zm31.39,119.31h-93.05v-7.31h93.05v7.31Zm-51.82-27.37h-67.5v-4.74h67.5v4.74Z"/>
    <path class="cls-2" d="m2023.69,755.98h-103.63v-5.1h103.63v5.1Zm-4.74,131.36h-75.9v-3.65h75.9v3.65Zm-23.72,89.03h-61.31v-4.74h61.31v4.74Zm131.72-142.3v-7.31h-38.3v-37.21h29.92v-22.63h-27.01v-34.66h-7.67v-7.67h40.51v-22.63h-30.29v-5.46c0-11.31-7.29-12.78-10.58-12.78h-33.2c-3.29,0-10.22,1.47-10.22,12.78v5.46h30.29v22.63h-100.35v7.67h67.5v34.66h27.01v22.63h-29.93v16.05h-138.27v-16.05h30.28v-22.63h-27.37v-34.66h-7.29v-7.67h40.14v-22.63h-30.29v-5.46c0-11.31-6.93-12.78-10.2-12.78h-33.2c-3.29,0-10.59,1.47-10.59,12.78v5.46h30.29v22.63h-54v7.67h21.16v34.66h27.01v22.63h-29.93v37.21h95.96v7.31h-99.23v58.38h30.64v22.61h-11.67v15.69h-21.16v22.63h26.99v18.6c0,11.31,7.31,12.77,10.59,12.77h33.56c2.91,0,9.84-1.46,9.84-12.77v-18.6h-26.99v-22.63h93.04v-15.69h-60.2v-22.61h-27.01v-32.84h147.04v32.84h18.24v22.61h-24.44v15.69h-8.39v22.63h26.99v18.6c0,11.31,6.93,12.77,10.22,12.77h33.2c3.29,0,10.58-1.46,10.58-12.77v-18.6h-26.99v-22.63h27.37v-15.69h5.48v-22.61h-14.97v-58.38h25.91Z"/>
    <path class="cls-2" d="m2487.07,970.89h-28.1v-.36l-9.12-22.63h20.8l-19.7-48.52h-28.82l-9.12-22.99h19.34l-23.36-58.02h16.79l-2.91-7.67h-27.01l-14.96-36.85h17.87l-9.48-22.99h-26.99l-13.5-33.2c0-.36-.38-.74-.38-1.46h-15.68c-.74-1.47-1.46-2.93-1.83-4.02-.36-1.1-1.1-2.19-1.46-3.65h45.61c-3.65-9.48-10.58-17.51-19.34-22.63h-10.95c-6.56-4.01-14.22-6.2-22.61-6.2s-16.05,2.19-22.63,6.2h10.58c-.74.38-1.46,1.1-2.55,1.47-1.83,1.1-3.65,2.55-5.12,3.65-4.37,3.65-8.03,9.48-12.03,17.51h-45.61c-1.1,2.55-2.19,5.12-3.29,7.67h15.32c0,.72-.36,1.1-.36,1.46l-13.5,33.2h27.01l-9.12,22.99h-17.88l-14.96,36.85h27.01l-2.93,7.67h-17.15l-23.35,58.02h-19.34l-9.12,22.99h28.82l-19.7,48.52h-21.16l-8.76,22.63s-.36,0-.36.36h28.45c-1.08,2.93-1.46,5.12-1.08,7.31h-29.2c.36.36.36.72.36,1.1.38,2.18,2.19,5.46,8.03,5.46h40.14c4.38,0,7.67-2.55,9.5-6.56h29.18c.38-.38.74-.74.74-1.1l2.55-6.21h-28.46l9.12-22.99h21.17l9.12-22.99h79.9c4.02,0,7.67-1.83,9.5-5.1,2.19-2.93,2.55-6.93,1.46-10.59l-4.02-9.84h-28.82l-9.12-22.63v-.36h19.34c-1.82-4.02-5.84-6.93-10.58-6.93h-44.88l6.57-16.43h36.47v-4.01h-35.02l12.03-30.65h16.79l3.29-7.67h-27.01l14.6-36.85h17.88l8.75-22.63.38-.36h2.19l9.11,22.99h-17.87l14.96,36.85h27.01l2.91,7.67h-16.79l22.99,58.02h-19.32l9.12,22.99h28.82l19.7,48.52h-21.17l9.12,22.99h28.46l2.19,5.84c.38.74.74,1.1.74,1.47h-29.2c2.19,4.01,5.48,6.56,9.86,6.56h39.04c5.84,0,7.29-3.65,8.03-5.46v-1.1h29.2c.36-2.19,0-4.38-1.1-7.31Zm-184.26-32.47h61.29v3.65h-61.29v-3.65Zm-63.5,20.06h40.14v4.02h-40.14v-4.02Z"/>
    <path class="cls-2" d="m2781.87,780.8v-8.75c0-11.69-.72-22.27-2.55-31.75h15.69c-.38-2.93-1.1-5.84-1.83-8.76h-23.35c-2.57-9.48-6.21-17.87-11.31-24.44-.38-.74-.74-1.1-1.46-1.83h27.35c-11.3-14.22-28.82-21.53-52.53-21.53h-168.21c-3.29,0-10.59,1.1-10.59,12.78v8.75h-26.99v20.08c0,2.55.36,4.74,1.1,6.2h37.58c2.18,5.48,6.93,6.21,9.48,6.21h158.72c5.1,0,9.48,1.1,12.77,2.55h-30.29c2.93,1.46,5.12,2.91,6.57,5.48,4.01,5.46,5.84,14.22,5.84,26.27,0,3.27,0,5.84-.36,8.75h34.3c-.74,7.67-2.57,13.5-5.48,17.51-3.65,5.48-10.22,8.03-19.34,8.03h-159.08c-1.1,0-2.55,0-4.01.74h-23.36c-2.91,1.1-6.2,4.38-6.2,11.67v31.39h-29.92v8.75h44.14v67.14h-9.84v26.27h-41.23v18.24h45.6v1.46c0,11.31,7.31,12.77,10.59,12.77h33.2c3.27,0,10.22-1.46,10.22-12.77v-1.46h-8.76v-18.24h30.65v-26.27h-16.43v-65.67l124.79-.38c6.21,0,11.69-.36,16.79-1.1h-25.91c9.12-1.82,16.79-4.74,23.36-8.75h11.67c5.48-3.65,9.86-8.03,13.86-13.14,5.48-8.03,9.48-18.24,12.41-29.92h10.58c1.46-8.03,2.93-16.79,3.29-26.27h-21.53Zm-149.59-15.69h-77v-9.48h77v9.48Zm68.22,23h-58.74v-7.31h58.74v7.31Zm31.39,119.31h-93.05v-7.31h93.05v7.31Zm-51.82-27.37h-67.5v-4.74h67.5v4.74Z"/>
    <path class="cls-2" d="m3188.7,970.89h-28.1v-.36l-9.12-22.63h20.8l-19.7-48.52h-28.82l-9.12-22.99h19.34l-23.36-58.02h16.79l-2.91-7.67h-27.01l-14.96-36.85h17.87l-9.48-22.99h-26.99l-13.5-33.2c0-.36-.38-.74-.38-1.46h-15.68c-.74-1.47-1.46-2.93-1.83-4.02-.36-1.1-1.1-2.19-1.46-3.65h45.61c-3.65-9.48-10.58-17.51-19.34-22.63h-10.95c-6.56-4.01-14.22-6.2-22.61-6.2s-16.05,2.19-22.63,6.2h10.58c-.74.38-1.46,1.1-2.55,1.47-1.83,1.1-3.65,2.55-5.12,3.65-4.37,3.65-8.03,9.48-12.03,17.51h-45.61c-1.1,2.55-2.19,5.12-3.29,7.67h15.32c0,.72-.36,1.1-.36,1.46l-13.5,33.2h27.01l-9.12,22.99h-17.88l-14.96,36.85h27.01l-2.93,7.67h-17.15l-23.35,58.02h-19.34l-9.12,22.99h28.82l-19.7,48.52h-21.16l-8.76,22.63s-.36,0-.36.36h28.45c-1.08,2.93-1.46,5.12-1.08,7.31h-29.2c.36.36.36.72.36,1.1.38,2.18,2.19,5.46,8.03,5.46h40.14c4.38,0,7.67-2.55,9.5-6.56h29.18c.38-.38.74-.74.74-1.1l2.55-6.21h-28.46l9.12-22.99h21.17l9.12-22.99h79.9c4.02,0,7.67-1.83,9.5-5.1,2.19-2.93,2.55-6.93,1.46-10.59l-4.02-9.84h-28.82l-9.12-22.63v-.36h19.34c-1.82-4.02-5.84-6.93-10.58-6.93h-44.88l6.57-16.43h36.47v-4.01h-35.02l12.03-30.65h16.79l3.29-7.67h-27.01l14.6-36.85h17.88l8.75-22.63.38-.36h2.19l9.11,22.99h-17.87l14.96,36.85h27.01l2.91,7.67h-16.79l22.99,58.02h-19.32l9.12,22.99h28.82l19.7,48.52h-21.17l9.12,22.99h28.46l2.19,5.84c.38.74.74,1.1.74,1.47h-29.2c2.19,4.01,5.48,6.56,9.86,6.56h39.04c5.84,0,7.29-3.65,8.03-5.46v-1.1h29.2c.36-2.19,0-4.38-1.1-7.31Zm-184.26-32.47h61.29v3.65h-61.29v-3.65Zm-63.5,20.06h40.14v4.02h-40.14v-4.02Z"/>
    <path class="cls-2" d="m3532.76,745.04v-18.24h-38.3v-26.27h26.99v-4.01c0-11.69-6.93-12.78-10.22-12.78h-32.47c-2.91,0-10.22,1.1-10.22,12.78v4.01h-26.99v26.27h20.8v18.24h-52.18v26.27h55.09v67.5h-19.34v8.75h2.93v43.06h-10.95v25.91h-1.82q-.38,0-1.1-1.1l-13.86-24.82h10.94l-24.08-43.06h23.72l-4.74-8.75h-7.67l-37.94-67.5h-25.18l-14.96-26.27h22.63l-10.22-18.24h-20.8l-9.5-16.41c-1.82-4.02-3.65-6.93-5.46-9.86h26.99c-.74-1.1-1.46-2.19-2.19-3.29-2.55-3.65-5.1-6.57-8.03-8.39-2.91-2.19-6.2-3.65-9.84-4.38-3.66-.36-8.03-.74-13.14-.74h-26.99c-10.59,0-18.62,3.66-23.72,10.22-1.46,1.83-2.55,4.02-3.65,6.57h-27.01c-2.55,6.2-3.65,14.96-4.01,26.27h20.8v18.24h-22.63v26.27h25.18v67.5h-22.99v8.75h6.93v43.06h-12.05v26.27h32.48v40.14h-25.55v8.76h29.56v6.2c0,11.31,7.31,12.77,10.58,12.77h32.48c2.91,0,10.22-1.46,10.22-12.77v-6.2h-29.56v-8.76h25.54v-66.41h-20.44v-43.06h42.7v-8.75h-26.65v-67.5h13.14l37.94,67.5h7.67l5.1,8.75h-23.71l24.08,43.06h-10.95l14.6,26.27h34.3l22.61,40.14h-47.07l.74,1.1c1.83,2.93,3.65,5.48,5.1,7.67h20.44c1.47,2.19,2.93,4.38,4.02,5.84,2.55,3.65,5.1,6.2,8.03,8.03,2.91,2.19,6.2,3.29,9.84,4.01,3.29.74,7.67,1.1,12.41,1.1h26.65c10.58,0,18.6-3.65,23.71-10.58,1.83-2.19,2.93-5.1,4.02-8.39h-4.02c1.1-2.55,1.83-5.48,2.55-8.76h29.56c1.1-5.48,1.47-12.03,1.47-19.34v-20.8h-34.3v-26.27h10.94v-43.06h30.65v-8.75h-14.6v-67.5h-25.18v-26.27h40.14Zm-128.79-33.56h-53.28v-4.76h53.28v4.76Zm-26.65,230.59h-51.07v-4.01h51.07v4.01Zm56.2-205.06h-51.09v-4.02h51.09v4.02Z"/>
    <path class="cls-2" d="m3807.5,697.24v-1.46c0-11.31-6.93-12.77-10.22-12.77h-209.44c-3.29,0-10.22,1.46-10.22,13.13v1.1h40.87v7.31h-40.87v20.06c0,.74,0,1.83.36,2.55h22.63c1.1,8.76,7.29,9.86,9.86,9.86l209.8.36c2.55,0,8.76-1.1,9.84-10.22h-22.61v-22.61h40.86v-7.31h-40.86Zm21.53,259.06v-24.08c0-5.46-1.83-8.39-4.02-10.22h32.11c-2.19-2.18-5.1-2.55-6.57-2.55h-128.79c-7.67,0-13.86-.72-18.6-2.55-4.76-1.46-8.4-4.01-11.31-8.03-1.83-2.55-3.29-5.84-4.38-9.48h-29.56c-.74-1.83-1.46-4.38-1.83-6.57-.36-2.19-.36-4.38-.72-6.57v-5.48h135v-9.11h-134.64v-8.76h22.27v-2.93h163.09c2.19,0,6.2-.36,8.39-4.38h-22.25c.74-1.82,1.83-4.37,1.83-8.03v-13.86h16.77v-10.22h-16.77v-4.74c0-11.31-7.31-12.77-10.22-12.77l-188.28.36c-10.58.74-19.7,6.57-25.18,15.33-.36.72-.36,1.46-.72,1.82h16.77c-1.1,2.57-2.19,4.76-2.91,7.67v2.55h-16.79l-.36,21.89h22.25v7.31h-21.89l-.36,8.76h35.75v9.11h-35.75c.36,6.57.72,12.78,1.1,18.62h29.92c.72,8.39,1.82,15.68,3.29,22.61h-32.11s.36.38.36.74c2.91,13.14,7.67,24.44,14.22,33.56h30.29c.36.38.72,1.47,1.46,2.19,1.46,1.83,2.93,3.29,4.74,5.12h-29.92c6.57,6.57,14.6,11.67,23.72,14.96,10.94,4.01,24.8,6.2,40.86,6.2h129.54c3.27,0,10.58-1.46,10.58-12.77v-8.39h29.56v-7.31h-29.92Zm-207.62-172.95h120.78v4.02h-120.78v-4.02Zm113.11,117.13h81.01v4.01h-81.01v-4.01Zm-61.31-147.41h123.69v5.84h-123.69v-5.84Z"/>
    <path class="cls-2" d="m4125.66,965.06v-21.89c0-11.31-7.29-12.77-10.22-12.77h-118.59c-7.65,0-14.22-.74-18.96-2.55h-18.6c-4.38-1.47-8.03-4.38-10.59-8.03-2.91-4.02-4.74-9.5-6.2-16.05v-.38h16.05c-1.1-6.93-1.83-16.05-1.83-26.99v-12.41h32.11v-8.03h-31.01v-62.03h-15.32v-24.46h66.05v-16.41h-60.95v-24.44h10.22v-24.08h-18.6v-8.03c0-11.69-7.29-12.78-10.22-12.78h-33.56c-3.29,0-10.58,1.1-10.58,12.78v8.03h18.96v24.08h-32.11v24.44h28.1v16.41h-11.69v24.46h15.69v62.03h-18.24v8.03h17.15v6.2c0,12.41.74,23.36,1.83,33.2h-16.43c1.1,6.93,1.83,13.5,3.29,18.98.38,2.19,1.1,3.65,1.47,5.48h18.24c3.27,12.03,8.03,22.61,14.58,30.28,1.83,2.55,3.65,4.74,5.84,6.93h-35.02c3.29,2.93,6.93,5.48,10.94,8.03h43.8c3.65,2.19,7.29,4.02,11.3,5.48,11.31,4.01,25.18,6.2,40.87,6.2h120.78c2.91,0,9.48-1.46,9.84-11.67h10.95v-8.03h-19.34Zm-68.6-121.86h-53.28v-4.74h53.28v4.74Zm-17.15,62.39h-76.62v-4.01h76.62v4.01Zm11.67-177.33h-74.79v-7.29h74.79v7.29Z"/>
  </g>
</svg>